<?xml version="1.0" encoding="UTF-8"?>
<svg width="48px" height="48px" viewBox="0 0 48 48" version="1.1" xmlns="http://www.w3.org/2000/svg" xmlns:xlink="http://www.w3.org/1999/xlink">
    <!-- Generator: Sketch 63.1 (92452) - https://sketch.com -->
    <title>kareo</title>
    <desc>Created with Sketch.</desc>
    <g id="kareo" stroke="none" stroke-width="1" fill="none" fill-rule="evenodd">
        <path d="M17.2005649,6.07184908 C19.5896847,6.78404218 18.2573779,10.1017119 17.9231721,11.5703336 C17.6296129,12.862013 15.6650248,19.7141068 19.7296899,21.47026 C23.6543498,23.1689069 31.0204261,15.2064996 32.0411086,14.3394819 C32.8404928,13.6626773 33.7979472,13.5299705 34.4347447,14.1492689 C35.0715423,14.7685672 35.0534771,15.7329032 34.3444188,16.6176151 C33.703105,17.3784674 30.2074931,21.2358113 30.2074931,25.2700977 C30.2074931,29.8219405 35.9928663,37.4393101 36.6296639,38.6425183 C36.8422618,39.0388986 36.9683772,39.4742517 37,39.920927 C37,41.3276189 35.9477034,42 34.7102387,42 C34.055376,42 33.5224532,41.7876691 32.8495254,41.0312405 C32.230793,40.3411652 28.7396974,35.722969 27.73708,34.3959011 C25.1853736,30.9941838 21.0845782,27.6322785 18.8806265,34.356089 C17.6702596,38.0497613 17.8554277,41.9911529 15.2675909,41.9911529 C11.1171163,42 9.02607192,23.2529545 13.5288175,10.0132407 C14.2604572,7.88993207 15.5205034,5.55871617 17.2005649,6.07184908 Z M20.4884273,13.8130783 C21.3916862,11.9640304 23.1620737,10.9554589 24.4672828,11.5747572 C25.7724919,12.1940555 26.0976651,14.1802338 25.1944062,16.0292817 C24.2911473,17.8783296 22.4981784,18.8824776 21.1929693,18.2720264 C19.8832439,17.6571516 19.5851684,15.6621263 20.4884273,13.8130783 Z" id="Combined-Shape" fill="#fff" fill-rule="nonzero"></path>
    </g>
</svg>
