<?xml version="1.0" encoding="UTF-8"?>
<svg width="48px" height="48px" viewBox="0 0 48 48" version="1.1" xmlns="http://www.w3.org/2000/svg" xmlns:xlink="http://www.w3.org/1999/xlink">
    <!-- Generator: Sketch 63.1 (92452) - https://sketch.com -->
    <title>next</title>
    <desc>Created with Sketch.</desc>
    <g id="next" stroke="none" stroke-width="1" fill="none" fill-rule="evenodd">
        <g id="Group" transform="translate(0.000000, 18.000000)" fill="#F69C20">
            <path d="M0,0 L4.11427709,0 L10.9714161,6.97643079 L10.9714161,0 L26.0571407,0 L28.9714491,3.17804094 L31.886513,0 L48,0 L48,2.74286188 L43.8857272,2.74286188 L43.8857272,12.3428627 L39.7713872,12.3428627 L39.7713872,2.74286188 L34.8594287,2.74286188 L31.714311,6.17138416 L37.3714499,12.3428627 L31.886576,12.3428627 L28.9714491,9.15818049 L26.0571722,12.3428627 L10.9714161,12.3428627 L4.11427709,5.57479919 L4.11427709,12.3428627 L0,12.3428627 L0,0 Z M15.0857246,2.74286188 L15.0857246,4.80000043 L19.2000017,4.80000043 L19.2000017,7.54286231 L15.0857246,7.54286231 L15.0857246,9.60000086 L23.143147,9.60000086 L26.2285873,6.17141563 L23.143147,2.74286188 L15.0857246,2.74286188 Z" id="Shape"></path>
        </g>
    </g>
</svg>
