<?xml version="1.0" encoding="UTF-8"?>
<svg width="48px" height="48px" viewBox="0 0 48 48" version="1.1" xmlns="http://www.w3.org/2000/svg" xmlns:xlink="http://www.w3.org/1999/xlink">
    <!-- Generator: Sketch 64 (93537) - https://sketch.com -->
    <title>Artboard</title>
    <desc>Created with Sketch.</desc>
    <g id="Artboard" stroke="none" stroke-width="1" fill="none" fill-rule="evenodd">
        <path d="M17.63,39 L17.63,28.82 L21.67,28.82 C23.55,28.82 25.19,28.5866667 26.59,28.12 C27.99,27.6533333 29.1566667,27 30.09,26.16 C31.0233333,25.32 31.7233333,24.3166667 32.19,23.15 C32.6566667,21.9833333 32.89,20.7 32.89,19.3 C32.89,17.9533333 32.67,16.7133333 32.23,15.58 C31.79,14.4466667 31.11,13.4733333 30.19,12.66 C29.27,11.8466667 28.1033333,11.2133333 26.69,10.76 C25.2766667,10.3066667 23.6033333,10.08 21.67,10.08 L21.67,10.08 L12.25,10.08 L12.25,39 L17.63,39 Z M21.67,24.62 L17.63,24.62 L17.63,14.24 L21.67,14.24 C22.6566667,14.24 23.5166667,14.3566667 24.25,14.59 C24.9833333,14.8233333 25.59,15.16 26.07,15.6 C26.55,16.04 26.91,16.5733333 27.15,17.2 C27.39,17.8266667 27.51,18.5266667 27.51,19.3 C27.51,20.1133333 27.39,20.85 27.15,21.51 C26.91,22.17 26.55,22.73 26.07,23.19 C25.59,23.65 24.9833333,24.0033333 24.25,24.25 C23.5166667,24.4966667 22.6566667,24.62 21.67,24.62 L21.67,24.62 Z M33.35,39.28 C33.7633333,39.28 34.1566667,39.2033333 34.53,39.05 C34.9033333,38.8966667 35.2233333,38.6866667 35.49,38.42 C35.7566667,38.1533333 35.97,37.8366667 36.13,37.47 C36.29,37.1033333 36.37,36.7066667 36.37,36.28 C36.37,35.8666667 36.29,35.4733333 36.13,35.1 C35.97,34.7266667 35.7566667,34.4066667 35.49,34.14 C35.2233333,33.8733333 34.9033333,33.66 34.53,33.5 C34.1566667,33.34 33.7633333,33.26 33.35,33.26 C32.9233333,33.26 32.5233333,33.34 32.15,33.5 C31.7766667,33.66 31.4533333,33.8733333 31.18,34.14 C30.9066667,34.4066667 30.6933333,34.7266667 30.54,35.1 C30.3866667,35.4733333 30.31,35.8666667 30.31,36.28 C30.31,36.7066667 30.3866667,37.1033333 30.54,37.47 C30.6933333,37.8366667 30.9066667,38.1533333 31.18,38.42 C31.4533333,38.6866667 31.7766667,38.8966667 32.15,39.05 C32.5233333,39.2033333 32.9233333,39.28 33.35,39.28 Z" id="P." fill="#02BFFD" fill-rule="nonzero"></path>
    </g>
</svg>