<?xml version="1.0" encoding="UTF-8"?>
<svg width="48px" height="48px" viewBox="0 0 48 48" version="1.1" xmlns="http://www.w3.org/2000/svg" xmlns:xlink="http://www.w3.org/1999/xlink">
    <!-- Generator: Sketch 63.1 (92452) - https://sketch.com -->
    <title>sharethrough</title>
    <desc>Created with Sketch.</desc>
    <g id="sharethrough" stroke="none" stroke-width="1" fill="none" fill-rule="evenodd">
        <path d="M12.7777778,32.3472072 L16.8165375,30.0181152 L22.4056848,33.2426138 L22.4056848,37.8826828 L12.7777778,32.3472072 Z M25.5865633,32.308389 L24.7958656,30.929049 L11.1808786,23.0800086 L11.1808786,18.4839336 L23.2067183,25.380634 L24.7958656,25.380634 L31.2041344,21.7058443 L36.8113695,24.9639853 L36.8113695,31.4336856 L25.5865633,37.8697434 L25.5865633,32.308389 Z M12.7751938,15.7278413 L23.997416,9.21932284 L35.2170543,15.7278413 L30.4082687,18.4839336 L23.997416,22.1638991 L12.7751938,15.7278413 Z M23.1989664,6 L8.79328165,14.3562648 L8,15.7356049 L8,23.9987061 L8.79328165,25.3780462 L13.620155,28.1755445 L8.79328165,30.9756308 L8.79328165,33.7368989 L23.2015504,42 L24.7958656,42 L39.2015504,33.7368989 L40,32.3549709 L40,24.0452879 L39.2067183,22.6659478 L34.3850129,19.8736252 L39.1937984,17.1278844 L39.1937984,14.3666163 L24.7958656,6 L23.1989664,6 Z" id="Shape" fill="#fff" fill-rule="nonzero"></path>
    </g>
</svg>
