<?xml version="1.0" encoding="UTF-8"?>
<svg width="48px" height="48px" viewBox="0 0 48 48" version="1.1" xmlns="http://www.w3.org/2000/svg" xmlns:xlink="http://www.w3.org/1999/xlink">
    <!-- Generator: Sketch 63.1 (92452) - https://sketch.com -->
    <title>weedmaps</title>
    <desc>Created with Sketch.</desc>
    <g id="weedmaps" stroke="none" stroke-width="1" fill="none" fill-rule="evenodd">
        <g id="Group" transform="translate(6.000000, 13.000000)">
            <polygon id="Path" points="0.052 0.0716 0.052 11.2916 35.626 11.2916 35.626 0.0716"></polygon>
            <path d="M21.652,0.368 L21.652,1.8464 L21.694,1.8464 C22.0924,1.2824 22.57,0.8468 23.134,0.536 C23.692,0.2264 24.334,0.0716 25.06,0.0716 C25.756,0.0716 26.392,0.2036 26.968,0.4724 C27.5416,0.74 27.9784,1.2128 28.276,1.8884 C28.6024,1.4084 29.0464,0.9884 29.608,0.62 C30.1696,0.254 30.832,0.0716 31.6,0.0716 C32.182,0.0716 32.722,0.1436 33.22,0.2828 C33.7168,0.4232 34.1416,0.6488 34.4968,0.9584 C34.852,1.268 35.1292,1.6736 35.3272,2.174 C35.5264,2.6744 35.6272,3.278 35.6272,3.9812 L35.6272,11.2916 L32.6008,11.2916 L32.6008,5.0996 C32.6008,4.7348 32.5864,4.3916 32.5576,4.0676 C32.53,3.7412 32.452,3.4604 32.3248,3.2192 C32.1964,2.9792 32.008,2.7872 31.7608,2.6432 C31.5112,2.4992 31.1728,2.4272 30.748,2.4272 C30.322,2.4272 29.9776,2.5112 29.716,2.6672 C29.452,2.8256 29.2456,3.0392 29.0968,3.3032 C28.948,3.5576 28.8484,3.8552 28.7968,4.1912 C28.7488,4.5152 28.7248,4.8512 28.7248,5.1896 L28.7248,11.2736 L25.7008,11.2736 L25.7008,5.1536 C25.7008,4.8296 25.6924,4.5056 25.6768,4.1936 C25.6648,3.8732 25.6048,3.5816 25.4968,3.314 C25.3888,3.0452 25.2124,2.834 24.9652,2.6696 C24.7252,2.5136 24.3532,2.4296 23.8732,2.4296 C23.7292,2.4296 23.5492,2.4656 23.3092,2.5256 C23.0812,2.5856 22.8532,2.7056 22.6252,2.8856 C22.4092,3.0656 22.2172,3.3176 22.0612,3.65 C21.9052,3.986 21.8332,4.418 21.8332,4.9532 L21.8332,11.2892 L18.8092,11.2892 L18.8092,0.368 L21.652,0.368 Z M10.5544,11.2916 L8.5936,3.9596 L8.5516,3.9596 L6.676,11.2916 L3.544,11.2916 L0.052,0.368 L3.2476,0.368 L5.2708,7.784 L5.3068,7.784 L7.144,0.368 L10.0864,0.368 L11.9608,7.7636 L12.0028,7.7636 L14.02,0.368 L17.1304,0.368 L13.66,11.2916 L10.552,11.2916 L10.5544,11.2916 Z" id="Shape" fill="#fff" fill-rule="nonzero"></path>
            <path d="M17.968,17.6936 C24.5056,17.6936 27.8152,15.2312 27.8152,15.2312 L29.2216,17.1188 C29.2216,17.1188 24.34,21.2228 17.9656,21.2228 C11.5912,21.2228 6.7096,17.1188 6.7096,17.1188 L8.1184,15.2228 C8.1184,15.2228 11.428,17.6828 17.968,17.6828" id="Path" fill="#334047" fill-rule="nonzero"></path>
        </g>
    </g>
</svg>
